<svg width="31" height="31" viewBox="0 0 31 31" fill="none" xmlns="http://www.w3.org/2000/svg">
<path d="M28.6 13.1848L26.05 15.2848L25.075 14.3098L27.25 11.7598L28.6 13.1848Z" fill="#D1D3D4"/>
<path d="M28.6 13.1848L26.05 15.2848L25.075 14.3098L27.25 11.7598L28.6 13.1848Z" stroke="#414042" stroke-miterlimit="10"/>
<path d="M19.15 3.73476L16.675 5.83476L15.7 4.85976L17.8 2.38476L19.15 3.73476Z" fill="#D1D3D4"/>
<path d="M19.15 3.73476L16.675 5.83476L15.7 4.85976L17.8 2.38476L19.15 3.73476Z" stroke="#414042" stroke-miterlimit="10"/>
<path d="M19.375 10.1848L10.375 5.23476C10.375 5.23476 11.05 4.55976 11.875 3.73476C12.7 2.90976 13.6 3.43476 15.1 3.95976L22.375 7.10976L19.375 10.1848Z" fill="#36D7B7"/>
<path d="M11.35 4.33476C10.825 4.85976 10.45 5.23476 10.45 5.23476L19.45 10.1848L20.35 9.28476L11.35 4.33476Z" fill="#AFEFE2"/>
<path d="M19.375 10.1848L10.375 5.23476C10.375 5.23476 11.05 4.55976 11.875 3.73476C12.7 2.90976 13.6 3.43476 15.1 3.95976L22.375 7.10976L19.375 10.1848Z" stroke="#414042" stroke-miterlimit="10"/>
<path d="M21.1 11.8348L26.05 20.8348C26.05 20.8348 26.725 20.1598 27.55 19.3348C28.375 18.5098 27.85 17.6098 27.325 16.1098L24.175 8.83476L21.1 11.8348Z" fill="#36D7B7"/>
<path d="M22 10.8598L21.025 11.8348L25.975 20.8348C25.975 20.8348 26.35 20.4598 26.95 19.8598L22 10.8598Z" fill="#AFEFE2"/>
<path d="M21.1 11.8348L26.05 20.8348C26.05 20.8348 26.725 20.1598 27.55 19.3348C28.375 18.5098 27.85 17.6098 27.325 16.1098L24.175 8.83476L21.1 11.8348Z" stroke="#414042" stroke-miterlimit="10"/>
<path d="M29.5 0.884758L25.225 2.00976L14.8 12.5098L10.9 18.3598L9.10002 17.5348C8.50002 17.3098 8.12502 17.0848 7.75002 17.4598C7.37502 17.8348 7.15002 18.0598 7.15002 18.0598L10.75 20.0098L10.825 20.0848L12.775 23.6848C12.775 23.6848 13.075 23.3848 13.375 23.0848C13.75 22.7098 13.525 22.3348 13.3 21.7348L12.4 19.7848L17.95 15.5848L28.225 5.83476L29.8 1.18476C29.8 1.03476 29.725 0.884758 29.5 0.884758Z" fill="#F5AB35"/>
<path d="M25 9.50976C26.5 8.00976 27.775 6.50976 28.45 5.15976C28.9 4.33476 29.8 1.18476 29.8 1.18476C29.8 0.959759 29.725 0.809759 29.5 0.884759C29.5 0.884759 26.35 1.63476 25.45 2.08476C24.1 2.75976 22.525 4.10976 20.95 5.75976" stroke="#414042" stroke-miterlimit="10"/>
<path d="M17.2 9.88476C16.375 10.8598 15.625 11.8348 15.025 12.5098C13.9 13.8598 10.6 18.2098 10.6 18.2098L9.02501 17.5348C8.42501 17.3098 8.05001 17.0848 7.67501 17.4598C7.30001 17.8348 7.07501 18.0598 7.07501 18.0598L10.675 20.0098L10.75 20.0848L12.7 23.6848C12.7 23.6848 13 23.3848 13.3 23.0848C13.675 22.7098 13.45 22.3348 13.225 21.7348L12.475 20.0098C12.475 20.0098 16.6 16.7098 17.95 15.5848C18.7 14.9848 19.675 14.1598 20.725 13.3348" stroke="#414042" stroke-miterlimit="10"/>
<path d="M9.02502 21.7348L11.95 18.8848" stroke="#414042" stroke-miterlimit="10"/>
<path d="M27.1 5.30976C26.65 5.75976 26.275 6.13476 25.825 6.58476C25.3 5.75976 24.625 5.08476 23.8 4.55976C24.25 4.10976 24.625 3.73476 25.075 3.28476C25.9 3.80976 26.65 4.55976 27.1 5.30976Z" fill="#414042"/>
<path d="M24.325 9.20976C24.5321 9.20976 24.7 9.04187 24.7 8.83476C24.7 8.62766 24.5321 8.45976 24.325 8.45976C24.1179 8.45976 23.95 8.62766 23.95 8.83476C23.95 9.04187 24.1179 9.20976 24.325 9.20976Z" fill="#414042"/>
<path d="M23.125 10.4098C23.3321 10.4098 23.5 10.2419 23.5 10.0348C23.5 9.82765 23.3321 9.65976 23.125 9.65976C22.9179 9.65976 22.75 9.82765 22.75 10.0348C22.75 10.2419 22.9179 10.4098 23.125 10.4098Z" fill="#414042"/>
<path d="M21.85 11.4598C22.0571 11.4598 22.225 11.2919 22.225 11.0848C22.225 10.8777 22.0571 10.7098 21.85 10.7098C21.6429 10.7098 21.475 10.8777 21.475 11.0848C21.475 11.2919 21.6429 11.4598 21.85 11.4598Z" fill="#414042"/>
<path d="M20.65 12.5848C20.8571 12.5848 21.025 12.4169 21.025 12.2098C21.025 12.0027 20.8571 11.8348 20.65 11.8348C20.4429 11.8348 20.275 12.0027 20.275 12.2098C20.275 12.4169 20.4429 12.5848 20.65 12.5848Z" fill="#414042"/>
<path d="M19.375 13.6348C19.5821 13.6348 19.75 13.4669 19.75 13.2598C19.75 13.0527 19.5821 12.8848 19.375 12.8848C19.1679 12.8848 19 13.0527 19 13.2598C19 13.4669 19.1679 13.6348 19.375 13.6348Z" fill="#414042"/>
<path d="M18.1 14.6848C18.3071 14.6848 18.475 14.5169 18.475 14.3098C18.475 14.1027 18.3071 13.9348 18.1 13.9348C17.8929 13.9348 17.725 14.1027 17.725 14.3098C17.725 14.5169 17.8929 14.6848 18.1 14.6848Z" fill="#414042"/>
<path d="M16.825 15.6598C17.0321 15.6598 17.2 15.4919 17.2 15.2848C17.2 15.0777 17.0321 14.9098 16.825 14.9098C16.6179 14.9098 16.45 15.0777 16.45 15.2848C16.45 15.4919 16.6179 15.6598 16.825 15.6598Z" fill="#414042"/>
<path d="M15.55 16.7098C15.7571 16.7098 15.925 16.5419 15.925 16.3348C15.925 16.1276 15.7571 15.9598 15.55 15.9598C15.3429 15.9598 15.175 16.1276 15.175 16.3348C15.175 16.5419 15.3429 16.7098 15.55 16.7098Z" fill="#414042"/>
<path d="M21.85 6.73476C22.0571 6.73476 22.225 6.56686 22.225 6.35976C22.225 6.15265 22.0571 5.98476 21.85 5.98476C21.6429 5.98476 21.475 6.15265 21.475 6.35976C21.475 6.56686 21.6429 6.73476 21.85 6.73476Z" fill="#414042"/>
<path d="M20.65 7.93476C20.8571 7.93476 21.025 7.76687 21.025 7.55976C21.025 7.35265 20.8571 7.18476 20.65 7.18476C20.4429 7.18476 20.275 7.35265 20.275 7.55976C20.275 7.76687 20.4429 7.93476 20.65 7.93476Z" fill="#414042"/>
<path d="M19.6 9.20976C19.8071 9.20976 19.975 9.04187 19.975 8.83476C19.975 8.62766 19.8071 8.45976 19.6 8.45976C19.3929 8.45976 19.225 8.62766 19.225 8.83476C19.225 9.04187 19.3929 9.20976 19.6 9.20976Z" fill="#414042"/>
<path d="M18.475 10.4098C18.6821 10.4098 18.85 10.2419 18.85 10.0348C18.85 9.82765 18.6821 9.65976 18.475 9.65976C18.2679 9.65976 18.1 9.82765 18.1 10.0348C18.1 10.2419 18.2679 10.4098 18.475 10.4098Z" fill="#414042"/>
<path d="M17.425 11.6848C17.6321 11.6848 17.8 11.5169 17.8 11.3098C17.8 11.1027 17.6321 10.9348 17.425 10.9348C17.2179 10.9348 17.05 11.1027 17.05 11.3098C17.05 11.5169 17.2179 11.6848 17.425 11.6848Z" fill="#414042"/>
<path d="M16.375 12.8848C16.5821 12.8848 16.75 12.7169 16.75 12.5098C16.75 12.3027 16.5821 12.1348 16.375 12.1348C16.1679 12.1348 16 12.3027 16 12.5098C16 12.7169 16.1679 12.8848 16.375 12.8848Z" fill="#414042"/>
<path d="M15.325 14.2348C15.5321 14.2348 15.7 14.0669 15.7 13.8598C15.7 13.6526 15.5321 13.4848 15.325 13.4848C15.1179 13.4848 14.95 13.6526 14.95 13.8598C14.95 14.0669 15.1179 14.2348 15.325 14.2348Z" fill="#414042"/>
<path d="M14.35 15.5098C14.5571 15.5098 14.725 15.3419 14.725 15.1348C14.725 14.9277 14.5571 14.7598 14.35 14.7598C14.1429 14.7598 13.975 14.9277 13.975 15.1348C13.975 15.3419 14.1429 15.5098 14.35 15.5098Z" fill="#414042"/>
<path d="M1 14.6848L9.025 6.65976" stroke="#414042" stroke-miterlimit="10"/>
<path d="M4.59998 14.0098L11.05 7.55976" stroke="#414042" stroke-miterlimit="10"/>
<path d="M8.42499 13.1098L12.925 8.53476" stroke="#414042" stroke-miterlimit="10"/>
<path d="M16.45 30.1348L24.4 22.1098" stroke="#414042" stroke-miterlimit="10"/>
<path d="M17.125 26.5348L23.575 20.0848" stroke="#414042" stroke-miterlimit="10"/>
<path d="M18.025 22.7098L22.525 18.2098" stroke="#414042" stroke-miterlimit="10"/>
</svg>
